# xmcd
#
# Track frame offsets: 
#        150
#        19620
#        40522
#        55575
#        72357
#        95154
#        115315
#        130412
#        147755
#        167162
#
# Disc length: 2457 seconds
#
# Revision: 0
# Processed by: cddbd v1.5.2PL0 Copyright (c) Steve Scherf et al.
# Submitted via: ExactAudioCopy v0.99pb5
#
DISCID=8609970a
DTITLE=Various Artist - Soul After Hours (Rounder Comp)
DYEAR=1996
DGENRE=Blues
TTITLE0=Irma thomas -  All I know Is the Way I Feel
TTITLE1=Otis Cly - I can take You to Heaven Tonight
TTITLE2=Solomon Burke - Love Is All that matters
TTITLE3=Johny Adams -  Still In Love
TTITLE4=Walter "Wolfman" Washington - Washington Without You
TTITLE5=Preston Shannon - Baby I Will
TTITLE6=Little Buster and the Soul Bros. - Ever Since
TTITLE7=Ann Peebles -  Nobody Like You
TTITLE8=Paul Kelly -  I'm Gonna Hold You to Your Promise
TTITLE9=Holmes Bros - You Can't Hold On to A Love That's Gone
EXTD=
EXTT0=
EXTT1=
EXTT2=
EXTT3=
EXTT4=
EXTT5=
EXTT6=
EXTT7=
EXTT8=
EXTT9=
PLAYORDER=
